<svg width="494" height="314" viewBox="0 0 494 314" fill="none" xmlns="http://www.w3.org/2000/svg">
<path d="M45.0336 313.853C45.0336 313.853 -3.60049 264.922 13.7351 196.079C26.4798 145.469 66.0482 115.665 121.396 127.377C172.971 138.288 228.989 126.854 277.205 46.9695C333.475 -46.2617 460.911 10.3004 444.704 120.431C434.036 192.932 516.111 196.338 471.734 314L45.0336 313.853Z" fill="#484C50"/>
<path d="M305.159 311.736L305.011 311.734C303.793 311.709 302.851 310.656 302.966 309.445L311.096 223.583L318.192 224.252L306.515 310.577C306.424 311.252 305.841 311.75 305.159 311.736Z" fill="#232527"/>
<path d="M383.459 311.736L383.609 311.734C384.828 311.709 385.77 310.656 385.655 309.445L377.524 223.583L370.429 224.252L382.106 310.577C382.196 311.252 382.779 311.75 383.459 311.736Z" fill="#232527"/>
<path d="M247.793 311.736L247.645 311.734C246.426 311.709 245.484 310.656 245.599 309.445L253.73 223.583L260.825 224.252L249.148 310.577C249.058 311.252 248.475 311.75 247.793 311.736Z" fill="#232527"/>
<path d="M381.038 215.227L414.289 96.0488H340.842L309.368 211.093L381.038 215.227Z" fill="#232527"/>
<path d="M376.897 224.837H266.995C264.717 224.837 262.854 222.978 262.854 220.703V215.224C262.854 212.949 264.717 211.09 266.995 211.09H376.897C379.176 211.09 381.038 212.949 381.038 215.224V220.703C381.038 222.978 379.176 224.837 376.897 224.837Z" fill="#232527"/>
<path d="M404.315 144.624C403.362 150.078 400.681 154.863 400.509 155.295C399.055 158.896 391.072 139.142 391.072 139.142L389.881 131.533L387.944 119.172L387.399 115.702L385.231 101.87L385.765 99.7676L388.372 89.5502L388.136 87.2207C388.136 87.2207 396.182 91.6664 398.37 100.101C399.145 103.087 400.265 109.419 401.33 116.506C401.497 117.616 402.431 118.075 402.596 119.213C403.968 128.851 405.148 139.858 404.315 144.624Z" fill="#ED975D"/>
<path d="M257.183 156.356C257.183 156.356 259.418 155.164 261.379 154.997C272.439 154.046 296.426 145.851 298.965 143.973C303.65 140.509 323.228 124.066 330.945 115.768C330.953 115.762 337.408 108.183 337.408 108.183C344.712 100.334 338.087 86.6301 338.087 86.6301C338.087 86.6301 325.545 91.948 321.007 97.1784C318.044 100.593 295.377 128.621 292.548 129.999C283.331 134.486 257.197 149.799 254.472 151C254.472 151.002 250.931 153.458 257.183 156.356Z" fill="#FFB27D"/>
<path d="M188.227 291.886C188.227 291.886 189.744 311.523 186.371 311.783C185.922 311.818 169.252 311.818 169.252 311.818L147.971 311.69C147.971 311.69 148.111 306.347 154.33 305.218C160.549 304.089 172.862 298.637 176.63 290.071C180.592 281.062 188.227 291.886 188.227 291.886Z" fill="#353637"/>
<path d="M336.329 171.287C336.329 171.287 334.456 206.888 331.191 213.092C331.191 213.092 329.732 212.578 319.082 212.485C306.192 212.37 244.638 212.124 237.255 215.853C234.946 217.021 228.327 244.766 188.786 292.51C188.786 292.51 184.851 295.154 178.84 294.716C173.103 294.301 172.621 293.24 172.621 293.24C172.621 293.24 210.237 197.245 218.567 189.338C231.291 177.258 296.437 164.832 305.967 164.555C315.497 164.274 336.329 171.287 336.329 171.287Z" fill="#B08667"/>
<path d="M232.342 292.715C232.342 292.715 233.859 311.534 230.485 311.783C230.036 311.816 213.367 311.816 213.367 311.816L192.086 311.693C192.086 311.693 192.226 306.574 198.445 305.492C204.664 304.409 216.976 299.184 220.745 290.976C224.71 282.342 232.342 292.715 232.342 292.715Z" fill="#353637"/>
<path d="M360.811 171.287C360.811 171.287 360.293 181.13 359.327 191.366C358.138 203.976 350.306 211.993 337.69 213.308C329.195 214.194 319.156 213.726 312.523 213.688C280.537 213.51 269.117 212.124 261.737 215.853C259.429 217.021 270.41 234.53 232.972 292.51C232.972 292.51 230.148 294.766 223.891 295.654C220.158 296.185 215.851 294.766 215.851 294.766C215.851 294.766 227.467 203.588 236.932 193.045C243.699 185.504 297.368 176.662 306.901 176.383C316.433 176.102 360.811 171.287 360.811 171.287Z" fill="#BD9573"/>
<path d="M404.315 120.818C404.315 120.818 397.757 126.743 386.822 125.723C386.203 128.886 385.43 132.405 384.524 136.129C384.45 136.438 384.373 136.749 384.297 137.064C382.873 142.857 381.142 149.119 379.2 155.295C373.562 173.236 366.127 190.511 359.08 193.909C358.341 194.265 337.402 194.068 323.069 188.501C318.92 186.888 314.93 184.422 311.329 181.69C306.104 177.729 301.692 173.217 298.798 169.983C296.716 167.656 296.93 164.085 299.263 162.007C304.658 157.206 313.64 148.722 315.661 143.749C317.367 139.555 319.881 130.729 321.894 123.257C311.302 120.451 308.883 108.949 308.883 108.949C308.883 108.949 326.224 90.0997 331.657 86.6329C338.766 82.0969 348.17 81.5173 351.854 80.8857C360.893 79.3355 371.538 79.6061 388.136 87.218C388.136 87.218 397.535 92.2925 400.038 102.078C402.543 111.863 404.315 120.818 404.315 120.818Z" fill="#3A3A3A"/>
<path d="M361.238 94.4797C352.33 95.1523 351.558 87.9725 351.558 87.9725L351.76 83.2096L351.996 77.6156C351.996 77.6156 358.448 74.217 363.533 71.8629C366.778 70.3619 369.473 69.2847 369.577 69.7905C370.322 73.271 372.466 80.2048 374.695 83.3272C376.002 88.7271 370.149 93.8044 361.238 94.4797Z" fill="#ED975D"/>
<path d="M348.699 79.1248C348.699 79.1248 371.072 81.1453 372.118 67.215C373.165 53.2846 376.755 44.1635 362.515 42.2852C348.274 40.4068 345.095 45.5142 343.613 50.0802C342.132 54.6434 342.907 78.2417 348.699 79.1248Z" fill="#FFAC73"/>
<path d="M380.063 41.3255C380.268 41.0904 380.745 40.9017 381.799 40.8498C381.799 40.8498 380.959 40.3193 379.83 40.2893C379.614 38.8238 378.844 36.2264 376.322 35.5893C376.322 35.5893 377.678 36.3166 377.848 37.875C374.934 34.8648 368.674 32.6583 351.317 33.9625C328.439 35.6795 335.921 50.329 338.876 52.0816C341.831 53.8341 349.301 49.085 354.817 49.5416C360.332 49.9982 361.351 57.9627 363.218 59.0618C365.086 60.1609 364.358 58.2279 366.893 57.0932C369.429 55.9586 369.654 60.15 368.915 62.8704C368.172 65.5909 371.639 69.1972 371.639 69.1972C371.639 69.1972 371.639 69.1972 375.169 65.4296C378.699 61.662 382.073 45.6618 380.487 42.2414C380.345 41.9407 380.208 41.6345 380.063 41.3255Z" fill="#2C2F35"/>
<path d="M357.333 78.8596C357.333 78.8596 355.562 75.9204 357.333 75.3271C366.431 72.2813 369.087 74.0011 369.087 74.0011L357.333 78.8596Z" fill="#ED975D"/>
<path d="M372.108 87.1713C372.108 87.1713 372.91 73.7275 368.181 73.8287C363.451 73.9299 357.61 75.4336 357.385 76.6394C356.758 80.0188 362.208 91.4748 364.913 91.9833C367.616 92.4946 372.108 87.1713 372.108 87.1713Z" fill="#FFB27D"/>
<path d="M384.297 137.064C382.873 142.857 381.142 149.118 379.2 155.295C373.562 173.236 366.127 190.51 359.08 193.909C358.341 194.264 337.402 194.068 323.069 188.501C318.92 186.888 314.93 184.422 311.329 181.69C320.927 184.575 336.737 181.879 351.558 176.826C367.436 171.41 368.216 151.833 368.216 151.833C372.806 141.004 366.836 103.912 366.836 103.912L384.297 137.064Z" fill="#2C2C2C"/>
<path d="M364.251 91.6498C364.251 91.6498 376.968 160.676 393.775 160.717C400.248 160.733 408.176 143.937 399.624 134.376C387.347 120.653 372.108 87.1713 372.108 87.1713C372.108 87.1713 369.974 85.8316 364.251 91.6498Z" fill="#FFB27D"/>
<path d="M254.472 151.002C254.472 151.002 249.17 151.902 246.399 151.002C243.627 150.106 226.687 156.626 228.722 156.782C230.756 156.938 240.905 155.443 243.271 155.639C245.637 155.839 246.9 155.948 245.972 156.793C245.043 157.638 238.473 157.876 240.768 158.603C243.063 159.333 248.696 159.123 251.095 158.603C253.494 158.084 256.096 156.933 257.681 156.112C259.456 155.194 254.472 151.002 254.472 151.002Z" fill="#FFB27D"/>
<path d="M234.878 161.023H277.415C277.415 159.153 275.898 157.638 274.025 157.638H234.881V161.023H234.878Z" fill="#8A8A8A"/>
<path d="M235.001 114.77H169.236L185.01 161.023H251.199L235.001 114.77Z" fill="#8A8A8A"/>
<path d="M168.269 114.77L184.043 161.02H250.233L234.032 114.77H168.269Z" fill="#8A8A8A"/>
<path d="M203.725 137.468C204.133 139.234 205.899 140.667 207.668 140.667C209.437 140.667 210.541 139.234 210.133 137.468C209.725 135.702 207.958 134.269 206.187 134.269C204.42 134.269 203.317 135.702 203.725 137.468Z" fill="#DDDDDD"/>
<path d="M100.833 169.365H420.817C423.211 169.365 425.15 167.429 425.15 165.039C425.15 162.65 423.211 160.714 420.817 160.714H100.833C98.4396 160.714 96.5007 162.65 96.5007 165.039C96.5007 167.429 98.4423 169.365 100.833 169.365Z" fill="#232527"/>
<path d="M109.602 311.851L109.506 311.837C108.375 311.687 107.573 310.593 107.715 309.396L124.954 165.039L134.615 165.34L111.448 310.402C111.3 311.332 110.484 311.971 109.602 311.851Z" fill="#232527"/>
<path d="M412.388 311.851L412.484 311.837C413.615 311.687 414.418 310.593 414.275 309.396L397.036 165.039L387.375 165.34L410.543 310.402C410.691 311.332 411.504 311.971 412.388 311.851Z" fill="#232527"/>
<path d="M493.439 314H0.560561C0.252252 314 0 313.615 0 313.145V312.855C0 312.385 0.252252 312 0.560561 312H493.439C493.748 312 494 312.385 494 312.855V313.145C493.998 313.615 493.746 314 493.439 314Z" fill="#2E3552"/>
</svg>
